Coordinates
version=1
nRows=14
nColumns=24
inDegrees=yes

Units are S.I. units (second, meters, Newtons, ...)
Angles are in degrees.

endheader
time	pelvis_tilt	pelvis_list	pelvis_rotation	pelvis_tx	pelvis_ty	pelvis_tz	hip_flexion_r	hip_adduction_r	hip_rotation_r	knee_angle_r	ankle_angle_r	subtalar_angle_r	mtp_angle_r	hip_flexion_l	hip_adduction_l	hip_rotation_l	knee_angle_l	ankle_angle_l	subtalar_angle_l	mtp_angle_l	lumbar_extension	lumbar_bending	lumbar_rotation
      1.88783333	      4.00911930	      2.43686841	     -4.26868127	      1.46868521	      1.02733682	      0.24002548	     11.52882738	     -6.28707113	     -7.35958404	    -54.16638532	      9.24717703	    -17.32979621	     -5.33760974	      6.15343802	      8.52674487	      1.79548943	    -21.12329459	     12.16419156	    -11.60064209	     -0.93268354	     -2.20365606	     -4.27798798	      3.03425511
      1.89200000	      3.97084656	      2.36961625	     -4.16182886	      1.47281910	      1.02768975	      0.23963183	     12.12210438	     -6.14109828	     -7.30835983	    -53.58528858	      9.43340072	    -17.38333994	     -5.35401848	      5.82397916	      8.49081548	      1.92096098	    -20.91268604	     12.26239242	    -11.56029928	     -0.93978768	     -2.21742451	     -4.18489502	      2.90841467
      1.89616667	      3.92032025	      2.27954652	     -4.02231298	      1.47691048	      1.02800416	      0.23919802	     12.70659140	     -5.97458484	     -7.29094147	    -52.96128915	      9.58038019	    -17.39782372	     -5.37326666	      5.52620081	      8.43082667	      2.07052325	    -20.74659036	     12.37364766	    -11.53549600	     -0.94742924	     -2.24433093	     -4.06005172	      2.72827205
      1.90033333	      3.86515418	      2.19752096	     -3.88104980	      1.48102841	      1.02827511	      0.23877474	     13.28489393	     -5.81436113	     -7.26122902	    -52.31421210	      9.65418260	    -17.40481747	     -5.42218221	      5.23567498	      8.37992421	      2.23639848	    -20.58053261	     12.46775821	    -11.50726159	     -0.97289846	     -2.29113239	     -3.96639506	      2.33988273
      1.90450000	      3.80903041	      2.11879622	     -3.76400412	      1.48511077	      1.02850707	      0.23840481	     13.86142662	     -5.65058765	     -7.20080048	    -51.65195823	      9.78079479	    -17.36242330	     -5.43358538	      4.94654100	      8.32820557	      2.36832024	    -20.40963909	     12.57047894	    -11.49764715	     -0.98040656	     -2.30047688	     -3.85853671	      2.24983437
      1.90866667	      3.73652294	      2.03557864	     -3.64676195	      1.48923409	      1.02868961	      0.23804742	     14.44148520	     -5.48071399	     -7.13904458	    -50.95961386	      9.85216424	    -17.29924046	     -5.44241618	      4.67741475	      8.27015613	      2.50397581	    -20.24518408	     12.67391396	    -11.50000507	     -0.98695857	     -2.29078154	     -3.74691391	      2.12537013
      1.91283333	      3.65889250	      1.95602873	     -3.50911597	      1.49328957	      1.02882653	      0.23767710	     15.01801683	     -5.31518960	     -7.08407682	    -50.24573161	      9.87607496	    -17.23541935	     -5.46488059	      4.42655369	      8.22152815	      2.69101840	    -20.10318487	     12.75406311	    -11.53347611	     -1.01536055	     -2.31014521	     -3.65837803	      1.79062666
      1.91700000	      3.58775706	      1.87872517	     -3.39389953	      1.49738299	      1.02894904	      0.23734800	     15.57731254	     -5.14809401	     -7.00214219	    -49.51085543	      9.91206065	    -17.11377157	     -5.46695837	      4.16557127	      8.17011214	      2.83349224	    -19.95107911	     12.85769433	    -11.54070548	     -1.02113903	     -2.29978568	     -3.55249386	      1.72399762
      1.92116667	      3.50491623	      1.79649849	     -3.27777224	      1.50143385	      1.02901250	      0.23704446	     16.14050871	     -4.97253888	     -6.91740523	    -48.75583755	      9.91267321	    -16.98008052	     -5.46662343	      3.93002651	      8.11145313	      2.97610031	    -19.81778722	     12.95635455	    -11.57132446	     -1.02724141	     -2.28831587	     -3.44264696	      1.60441150
      1.92533333	      3.40987821	      1.72331362	     -3.13486362	      1.50552074	      1.02902361	      0.23671074	     16.70094277	     -4.81022126	     -6.83855432	    -47.98675142	      9.88340896	    -16.85485531	     -5.45622654	      3.70684525	      8.07023878	      3.18728516	    -19.69450528	     13.01647003	    -11.67354790	     -1.05261644	     -2.27632946	     -3.36150459	      1.29839125
      1.92950000	      3.33675659	      1.64603872	     -3.02395178	      1.50960652	      1.02905289	      0.23644726	     17.22469431	     -4.63812716	     -6.73763152	    -47.18545991	      9.85149355	    -16.66652535	     -5.44974393	      3.45906599	      8.01657818	      3.33109909	    -19.56310587	     13.12095746	    -11.70585716	     -1.05771681	     -2.26831399	     -3.26269071	      1.24099597
      1.93366667	      3.22690573	      1.55377519	     -2.88796191	      1.51363834	      1.02898579	      0.23614943	     17.77278094	     -4.45330129	     -6.65259873	    -46.35944107	      9.79709297	    -16.48455769	     -5.43292054	      3.27936205	      7.94917538	      3.50770249	    -19.48880399	     13.20316433	    -11.79771583	     -1.06863969	     -2.25024367	     -3.14486330	      1.09003689
      1.93783333	      3.15124897	      1.48469242	     -2.76406787	      1.51768665	      1.02894120	      0.23590400	     18.28383114	     -4.29263227	     -6.55076418	    -45.52987000	      9.70761935	    -16.28473607	     -5.41955931	      3.04048542	      7.90430652	      3.67492415	    -19.36166716	     13.30331566	    -11.84875303	     -1.07380658	     -2.23415421	     -3.06221765	      0.98458216
      1.94200000	      3.05955216	      1.40114762	     -2.63360018	      1.52176708	      1.02886234	      0.23565314	     18.78450887	     -4.11477395	     -6.44277871	    -44.66648210	      9.60310140	    -16.07062584	     -5.40267045	      2.82825181	      7.84481670	      3.85464168	    -19.26527019	     13.39489675	    -11.92966508	     -1.07924340	     -2.20754922	     -2.95863671	      0.86427149
